<svg  viewBox="0 0 256 256" fill="none" xmlns="http://www.w3.org/2000/svg">
<path d="M128 74.6667V224M128 74.6667C128 63.3508 123.505 52.4983 115.503 44.4968C107.502 36.4952 96.6494 32 85.3335 32H32.0002C29.1712 32 26.4581 33.1238 24.4577 35.1242C22.4573 37.1246 21.3335 39.8377 21.3335 42.6667V181.333C21.3335 184.162 22.4573 186.875 24.4577 188.876C26.4581 190.876 29.1712 192 32.0002 192H96.0002C104.487 192 112.626 195.371 118.628 201.373C124.629 207.374 128 215.513 128 224M128 74.6667C128 63.3508 132.495 52.4983 140.497 44.4968C148.498 36.4952 159.351 32 170.667 32H224C226.829 32 229.542 33.1238 231.543 35.1242C233.543 37.1246 234.667 39.8377 234.667 42.6667V181.333C234.667 184.162 233.543 186.875 231.543 188.876C229.542 190.876 226.829 192 224 192H160C151.513 192 143.374 195.371 137.373 201.373C131.372 207.374 128 215.513 128 224M170.667 128H192M170.667 85.3333H192M64.0002 128H85.3335M64.0002 85.3333H85.3335" stroke="currentColor" stroke-width="21.3333" stroke-linecap="round" stroke-linejoin="round"/>
</svg>
