<svg width="128" height="128" viewBox="0 0 128 128" fill="none" xmlns="http://www.w3.org/2000/svg">
<path d="M117.333 101.333C117.333 110.17 110.17 117.333 101.333 117.333H29.667L91.5205 55.4785C94.3205 56.1103 96.9198 57.4873 99.0273 59.4922L99.3115 59.7695L99.3125 59.7705L106.667 67.124V40.333L115.601 31.3994C116.257 30.7428 116.834 30.0368 117.333 29.2939V101.333ZM88 65.752C86.5858 65.752 85.2296 66.3136 84.2295 67.3135L84.2285 67.3125L44.876 106.667H101.333C104.279 106.667 106.667 104.279 106.667 101.333V82.209L91.7705 67.3125C90.7704 66.3129 89.414 65.752 88 65.752ZM96.832 10.667C96.4772 10.9582 96.1331 11.2692 95.8018 11.6006L86.0693 21.333H26.667C23.7215 21.333 21.333 23.7215 21.333 26.667V86.0693L10.667 96.7354V26.667C10.667 17.8304 17.8304 10.667 26.667 10.667H96.832ZM48 32C55.4285 32 61.6736 37.0627 63.4756 43.9258L43.9258 63.4756C37.0627 61.6736 32 55.4285 32 48C32 39.1634 39.1634 32 48 32ZM48 42.667C45.0545 42.667 42.667 45.0545 42.667 48C42.667 50.9455 45.0545 53.333 48 53.333C50.9455 53.333 53.333 50.9455 53.333 48C53.333 45.0545 50.9455 42.667 48 42.667Z" fill="#D7D8D9"/>
<line x1="12.5" y1="115.015" x2="116.015" y2="11.5" stroke="#D7D8D9" stroke-width="12" stroke-linecap="round"/>
</svg>
