<svg viewBox="0 0 16 16" fill="currentcolor" xmlns="http://www.w3.org/2000/svg">
<path fill-rule="evenodd" clip-rule="evenodd" d="M7.99999 11.7667C5.10282 11.7667 2.66271 10.282 1.1291 8.00001C2.66271 5.71801 5.10282 4.23333 7.99999 4.23333C10.8972 4.23333 13.3373 5.71801 14.8709 8.00001C13.3373 10.282 10.8972 11.7667 7.99999 11.7667ZM7.99999 3.23333C4.60785 3.23333 1.78972 5.04637 0.109325 7.73501C0.00799137 7.89715 0.00799179 8.10287 0.109327 8.26501C1.78972 10.9536 4.60785 12.7667 7.99999 12.7667C11.3921 12.7667 14.2103 10.9536 15.8907 8.26501C15.992 8.10287 15.992 7.89715 15.8907 7.73501C14.2103 5.04637 11.3921 3.23333 7.99999 3.23333ZM7.99999 10.1333C9.1782 10.1333 10.1333 9.1782 10.1333 8C10.1333 6.82179 9.1782 5.86666 7.99999 5.86666C6.82178 5.86666 5.86666 6.82179 5.86666 8C5.86666 9.1782 6.82178 10.1333 7.99999 10.1333Z"/>
</svg>
